<?xml version="1.0" standalone="no"?>
<!DOCTYPE svg PUBLIC "-//W3C//DTD SVG 20010904//EN"
 "http://www.w3.org/TR/2001/REC-SVG-20010904/DTD/svg10.dtd">
<svg version="1.0" xmlns="http://www.w3.org/2000/svg"
 width="512.000000pt" height="512.000000pt" viewBox="0 0 512.000000 512.000000"
 preserveAspectRatio="xMidYMid meet">

<g transform="translate(0.000000,512.000000) scale(0.100000,-0.100000)"
fill="#000000" stroke="none">
<path d="M1353 5096 l-28 -24 -3 -914 c-2 -636 0 -924 8 -950 19 -66 93 -85
137 -36 17 19 18 54 21 575 l3 555 62 -7 c494 -54 931 -360 1142 -800 41 -84
64 -108 106 -108 40 0 58 20 119 138 221 428 644 717 1128 770 l62 7 0 -789
c0 -491 -4 -831 -11 -899 -121 -1223 -1041 -2209 -2254 -2414 -66 -11 -173
-23 -237 -27 l-118 -6 0 126 0 125 73 27 c100 38 264 125 368 196 387 265 652
669 743 1134 82 416 1 748 -241 988 -89 88 -149 130 -258 183 -545 261 -1183
-58 -1312 -656 -17 -79 -18 -151 -18 -997 l0 -911 25 -27 25 -27 135 6 c74 3
169 13 210 21 41 8 76 15 77 15 1 0 3 -72 5 -161 l3 -161 30 -25 29 -26 146 7
c1283 58 2371 959 2670 2211 6 28 20 95 30 150 44 239 45 284 45 1523 l0 1184
-28 24 c-35 30 -77 31 -183 4 -144 -37 -267 -136 -333 -267 l-21 -43 -910 0
-910 0 -26 53 c-36 70 -154 185 -226 220 -64 30 -165 57 -220 57 -25 0 -46 -8
-65 -24z m208 -177 c74 -37 129 -98 170 -186 21 -45 47 -87 58 -92 13 -8 337
-11 1013 -11 874 0 996 2 1015 15 12 9 32 43 44 76 27 73 92 149 163 190 91
52 86 63 86 -210 l0 -238 -77 -7 c-321 -27 -656 -176 -912 -405 -89 -78 -200
-210 -267 -315 -27 -41 -52 -75 -55 -76 -3 0 -28 35 -54 77 -153 241 -379 439
-646 567 -182 88 -356 137 -531 152 l-78 7 0 238 c0 267 -4 257 71 218z m328
-2054 c244 -27 491 -219 593 -461 49 -114 61 -201 55 -368 -4 -87 -15 -191
-26 -246 -86 -418 -331 -784 -683 -1021 -132 -89 -318 -179 -413 -199 -22 -5
-58 -15 -80 -23 -37 -14 -183 -40 -282 -51 l-43 -4 0 851 c0 917 0 915 53
1047 108 266 350 450 632 480 69 7 88 6 194 -5z"/>
<path d="M1199 2161 c-31 -32 -35 -54 -18 -116 25 -89 107 -162 200 -179 95
-17 202 40 251 133 47 90 32 170 -36 187 -35 8 -84 -21 -92 -54 -17 -79 -38
-102 -92 -102 -36 0 -67 32 -81 87 -20 75 -81 95 -132 44z"/>
<path d="M1364 1677 c-22 -19 -26 -31 -26 -70 3 -128 111 -231 242 -231 63 0
116 21 163 63 77 69 103 186 52 236 -13 14 -36 25 -50 25 -35 0 -85 -50 -85
-85 0 -38 -41 -75 -84 -75 -41 0 -70 31 -80 84 -8 40 -47 76 -82 76 -12 0 -35
-10 -50 -23z"/>
<path d="M1954 3879 c-69 -9 -139 -44 -194 -99 -173 -171 -123 -458 98 -567
50 -24 69 -28 147 -28 76 0 99 4 146 26 79 37 133 90 171 167 29 59 33 76 33
152 0 72 -4 94 -29 147 -66 143 -212 222 -372 202z m163 -196 c57 -45 78 -88
77 -154 -1 -98 -68 -172 -167 -185 -60 -9 -141 29 -176 81 -44 65 -39 167 11
231 56 70 185 84 255 27z"/>
<path d="M3544 3879 c-181 -23 -314 -186 -302 -372 8 -126 87 -240 207 -296
47 -22 70 -26 146 -26 78 0 98 4 145 27 141 69 220 217 199 372 -20 147 -142
271 -289 293 -30 5 -78 6 -106 2z m134 -180 c107 -52 136 -200 56 -289 -45
-50 -108 -75 -168 -66 -149 23 -214 198 -116 310 60 67 146 84 228 45z"/>
</g>
</svg>
